<?xml version="1.0" encoding="UTF-8" standalone="no"?>
<svg xmlns="http://www.w3.org/2000/svg" version="1.2" baseProfile="tiny" viewBox="0 0 1448 1448" width="1448" height="1448">
<g stroke-width="2.00" fill="none" stroke-linecap="butt">
<path stroke="#806600" vector-effect="non-scaling-stroke" d="
  M 736.90 252.10
  Q 729.83 245.08 722.56 238.07
  A 0.54 0.52 44.2 0 0 721.82 238.07
  L 538.96 421.45
  A 0.59 0.50 45.0 0 0 539.03 422.22
  L 839.74 722.26
  A 0.87 0.79 -45.2 0 1 839.69 723.44
  L 541.57 1022.32
  A 0.59 0.54 -44.7 0 0 541.53 1023.11
  Q 629.96 1114.98 718.59 1206.66
  Q 721.41 1209.58 723.12 1211.15
  A 0.55 0.52 -46.5 0 0 723.86 1211.11
  L 1210.27 723.52
  A 1.10 1.10 44.8 0 0 1210.26 721.96
  Q 973.91 487.22 736.90 252.10"
/>
<path stroke="#806600" vector-effect="non-scaling-stroke" d="
  M 424.78 545.58
  C 484.51 605.72 532.42 652.89 604.68 725.39
  A 0.56 0.51 -45.4 0 1 604.65 726.15
  L 424.72 906.71
  A 0.86 0.76 -45.3 0 0 424.65 907.85
  L 490.55 973.70
  A 0.47 0.45 -44.5 0 0 491.19 973.69
  L 738.50 725.75
  A 0.24 0.23 -44.2 0 0 738.51 725.41
  C 654.64 641.80 570.87 558.05 486.90 474.50
  A 0.54 0.45 44.6 0 0 486.19 474.44
  L 420.31 540.31
  A 0.67 0.64 -40.2 0 0 420.22 541.13
  C 421.47 542.94 423.77 544.56 424.78 545.58"
/>
<path stroke="#806600" vector-effect="non-scaling-stroke" d="
  M 499.8960 725.4791
  A 0.39 0.39 0.0 0 0 499.8950 724.9276
  L 367.9171 593.4096
  A 0.39 0.39 0.0 0 0 367.3656 593.4105
  L 239.0240 722.2009
  A 0.39 0.39 0.0 0 0 239.0250 722.7524
  L 371.0029 854.2704
  A 0.39 0.39 0.0 0 0 371.5544 854.2695
  L 499.8960 725.4791"
/>
<path stroke="#806600" vector-effect="non-scaling-stroke" d="
  M 724.88 1076.46
  C 842.32 958.95 959.72 841.24 1076.86 723.62
  A 0.88 0.87 -45.2 0 0 1076.86 722.39
  Q 902.58 549.54 728.91 377.34
  Q 725.95 374.41 723.02 371.43
  A 0.57 0.42 45.5 0 0 722.32 371.32
  L 672.35 421.34
  A 0.75 0.45 45.0 0 0 672.56 422.19
  L 973.17 722.08
  A 0.77 0.76 -45.3 0 1 973.17 723.17
  L 673.70 1023.45
  A 0.59 0.43 -44.2 0 0 673.58 1024.17
  L 724.17 1076.58
  A 0.58 0.41 -44.7 0 0 724.88 1076.46"
/>
</g>
<g fill="#000000">
<path d="
  M 1446.21 724.03
  A 722.19 722.19 0.0 0 1 724.02 1446.22
  A 722.19 722.19 0.0 0 1 1.83 724.03
  A 722.19 722.19 0.0 0 1 724.02 1.84
  A 722.19 722.19 0.0 0 1 1446.21 724.03
  Z
  M 736.90 252.10
  Q 729.83 245.08 722.56 238.07
  A 0.54 0.52 44.2 0 0 721.82 238.07
  L 538.96 421.45
  A 0.59 0.50 45.0 0 0 539.03 422.22
  L 839.74 722.26
  A 0.87 0.79 -45.2 0 1 839.69 723.44
  L 541.57 1022.32
  A 0.59 0.54 -44.7 0 0 541.53 1023.11
  Q 629.96 1114.98 718.59 1206.66
  Q 721.41 1209.58 723.12 1211.15
  A 0.55 0.52 -46.5 0 0 723.86 1211.11
  L 1210.27 723.52
  A 1.10 1.10 44.8 0 0 1210.26 721.96
  Q 973.91 487.22 736.90 252.10
  Z
  M 424.78 545.58
  C 484.51 605.72 532.42 652.89 604.68 725.39
  A 0.56 0.51 -45.4 0 1 604.65 726.15
  L 424.72 906.71
  A 0.86 0.76 -45.3 0 0 424.65 907.85
  L 490.55 973.70
  A 0.47 0.45 -44.5 0 0 491.19 973.69
  L 738.50 725.75
  A 0.24 0.23 -44.2 0 0 738.51 725.41
  C 654.64 641.80 570.87 558.05 486.90 474.50
  A 0.54 0.45 44.6 0 0 486.19 474.44
  L 420.31 540.31
  A 0.67 0.64 -40.2 0 0 420.22 541.13
  C 421.47 542.94 423.77 544.56 424.78 545.58
  Z
  M 499.8960 725.4791
  A 0.39 0.39 0.0 0 0 499.8950 724.9276
  L 367.9171 593.4096
  A 0.39 0.39 0.0 0 0 367.3656 593.4105
  L 239.0240 722.2009
  A 0.39 0.39 0.0 0 0 239.0250 722.7524
  L 371.0029 854.2704
  A 0.39 0.39 0.0 0 0 371.5544 854.2695
  L 499.8960 725.4791
  Z"
/>
<path d="
  M 1076.86 723.62
  C 959.72 841.24 842.32 958.95 724.88 1076.46
  A 0.58 0.41 -44.7 0 1 724.17 1076.58
  L 673.58 1024.17
  A 0.59 0.43 -44.2 0 1 673.70 1023.45
  L 973.17 723.17
  A 0.77 0.76 -45.3 0 0 973.17 722.08
  L 672.56 422.19
  A 0.75 0.45 45.0 0 1 672.35 421.34
  L 722.32 371.32
  A 0.57 0.42 45.5 0 1 723.02 371.43
  Q 725.95 374.41 728.91 377.34
  Q 902.58 549.54 1076.86 722.39
  A 0.88 0.87 -45.2 0 1 1076.86 723.62
  Z"
/>
</g>
<g fill="#ffcb00">
<path d="
  M 736.90 252.10
  Q 973.91 487.22 1210.26 721.96
  A 1.10 1.10 44.8 0 1 1210.27 723.52
  L 723.86 1211.11
  A 0.55 0.52 -46.5 0 1 723.12 1211.15
  Q 721.41 1209.58 718.59 1206.66
  Q 629.96 1114.98 541.53 1023.11
  A 0.59 0.54 -44.7 0 1 541.57 1022.32
  L 839.69 723.44
  A 0.87 0.79 -45.2 0 0 839.74 722.26
  L 539.03 422.22
  A 0.59 0.50 45.0 0 1 538.96 421.45
  L 721.82 238.07
  A 0.54 0.52 44.2 0 1 722.56 238.07
  Q 729.83 245.08 736.90 252.10
  Z
  M 724.88 1076.46
  C 842.32 958.95 959.72 841.24 1076.86 723.62
  A 0.88 0.87 -45.2 0 0 1076.86 722.39
  Q 902.58 549.54 728.91 377.34
  Q 725.95 374.41 723.02 371.43
  A 0.57 0.42 45.5 0 0 722.32 371.32
  L 672.35 421.34
  A 0.75 0.45 45.0 0 0 672.56 422.19
  L 973.17 722.08
  A 0.77 0.76 -45.3 0 1 973.17 723.17
  L 673.70 1023.45
  A 0.59 0.43 -44.2 0 0 673.58 1024.17
  L 724.17 1076.58
  A 0.58 0.41 -44.7 0 0 724.88 1076.46
  Z"
/>
<path d="
  M 604.68 725.39
  C 532.42 652.89 484.51 605.72 424.78 545.58
  C 423.77 544.56 421.47 542.94 420.22 541.13
  A 0.67 0.64 -40.2 0 1 420.31 540.31
  L 486.19 474.44
  A 0.54 0.45 44.6 0 1 486.90 474.50
  C 570.87 558.05 654.64 641.80 738.51 725.41
  A 0.24 0.23 -44.2 0 1 738.50 725.75
  L 491.19 973.69
  A 0.47 0.45 -44.5 0 1 490.55 973.70
  L 424.65 907.85
  A 0.86 0.76 -45.3 0 1 424.72 906.71
  L 604.65 726.15
  A 0.56 0.51 -45.4 0 0 604.68 725.39
  Z"
/>
<rect x="-93.55" y="-91.30" transform="translate(369.46,723.84) rotate(44.9)" width="187.10" height="182.60" rx="0.39"/>
</g>
</svg>
